<svg width="512" height="512" viewBox="0 0 512 512" xmlns="http://www.w3.org/2000/svg">
  <defs>
    <radialGradient id="orbGradient" cx="50%" cy="50%" r="50%">
      <stop offset="0%" stop-color="#4a607a"/>
      <stop offset="100%" stop-color="#1b1c1e"/>
    </radialGradient>
    <linearGradient id="gold" x1="0%" y1="0%" x2="100%" y2="100%">
      <stop offset="0%" stop-color="#ffd700"/>
      <stop offset="100%" stop-color="#cc8800"/>
    </linearGradient>
    <linearGradient id="gearGradient" x1="0%" y1="0%" x2="0%" y2="100%">
      <stop offset="0%" stop-color="#ffcc33"/>
      <stop offset="100%" stop-color="#cc8800"/>
    </linearGradient>
  </defs>

  <!-- Background square resized and repositioned to fill more space -->
  <rect x="0" y="0" width="512" height="512" rx="32" fill="url(#gold)" opacity="0.85"/>

  <!-- Main orb now fully fills the canvas -->
  <circle cx="256" cy="256" r="240" fill="url(#orbGradient)" stroke="url(#gold)" stroke-width="16" />

  <!-- Gear icon resized to better fill the area -->
  <g transform="translate(256,256) scale(0.78) translate(-256,-256)">
    <path d="
      M288 256a32 32 0 1 1-64 0 32 32 0 0 1 64 0zm84 0a116 116 0 0 0-1.5-18l26.7-20.5-24-41.6-32.1 6.9a117 117 0 0 0-13.2-13.2l6.9-32.1-41.6-24-20.5 26.7a116 116 0 0 0-36 0l-20.5-26.7-41.6 24 6.9 32.1a117 117 0 0 0-13.2 13.2l-32.1-6.9-24 41.6 26.7 20.5a116 116 0 0 0 0 36l-26.7 20.5 24 41.6 32.1-6.9a117 117 0 0 0 13.2 13.2l-6.9 32.1 41.6 24 20.5-26.7a116 116 0 0 0 36 0l20.5 26.7 41.6-24-6.9-32.1a117 117 0 0 0 13.2-13.2l32.1 6.9 24-41.6-26.7-20.5a116 116 0 0 0 1.5-18z
    " fill="url(#gearGradient)" stroke="#994d00" stroke-width="6"/>
  </g>

  <!-- Sparkles repositioned to match new layout -->
  <circle cx="180" cy="170" r="2" fill="white" opacity="0.6"/>
  <circle cx="320" cy="135" r="1.5" fill="white" opacity="0.5"/>
  <circle cx="360" cy="300" r="1.2" fill="white" opacity="0.4"/>
</svg>
